{"title":"Lights Out 2016 CAM READNFO XviD-BiGDADDYVAiN","uid":15476252,"size":1524917413,"categoryP":"video","categoryS":"movies","magnet":"?xt=urn:btih:d259320e3c90f9412211a77d770fd2b293dc6aab&amp;dn=Lights+Out+2016+CAM+READNFO+XviD-BiGDADDYVAiN&amp;tr=udp%3A%2F%2Ftracker.leechers-paradise.org%3A6969&amp;tr=udp%3A%2F%2Fzer0day.ch%3A1337&amp;tr=udp%3A%2F%2Fopen.demonii.com%3A1337&amp;tr=udp%3A%2F%2Ftracker.coppersurfer.tk%3A6969&amp;tr=udp%3A%2F%2Fexodus.desync.com%3A6969","seeders":9,"leechers":3,"uploader":"makintos13","files":3,"time":1470192051,"description":"screens:\r\n \nhttps://imgmak.com/ab3\r\n \nhttps://imgmak.com/abG\r\n \nhttps://imgmak.com/abH\r\n \nhttps://imgmak.com/abv\r\n \nhttps://imgmak.com/aby\r\n \nhttps://imgmak.com/ab6\r\n\r\nP R E S E N T S . . . .\r\n\r\nLights.Out.2016.CAM.READNFO.XviD-BiGDADDYVAiN\r\n\r\niMDB........: http://www.imdb.com/title/tt4786282/\r\n\r\n\r\n\r\nT E C H N i C A L . i N F O . . .\r\n\r\nBasic Information\r\nFormat : AVI\r\nFormat/Info : Audio Video Interleave\r\nFile size : 1.40 GiB\r\nDuration : 1 h 15 min\r\nOverall bit rate : 2 631 kb/s\r\nWriting application : VirtualDubMod 1.5.10.2 (build 2540/release)\r\nWriting library : VirtualDubMod build 2540/release\r\n\r\nVideo\r\nID : 0\r\nFormat : MPEG-4 Visual\r\nFormat profile : Advanced   \r\nFormat settings, BVOP : 2\r\nFormat settings, QPel : No\r\nFormat settings, GMC : No warppoints\r\nFormat settings, Matrix : Default (MPEG)\r\nMuxing mode : Packed bitstream\r\nCodec ID : XVID\r\nCodec ID/Hint : XviD\r\nDuration : 1 h 15 min\r\nBit rate : 2 428 kb/s\r\nWidth : 720 pixels\r\nHeight : 288 pixels\r\nDisplay aspect ratio : 2.500\r\nFrame rate : 29.970 (30000/1001) FPS\r\nColor space : YUV\r\nChroma subsampling : 4:2:0\r\nBit depth : 8 bits\r\nScan type : Progressive\r\nCompression mode : Lossy\r\nBits/(Pixel*Frame) : 0.391\r\nStream size : 1.29 GiB (92%)\r\nWriting library : XviD 67\r\n\r\nAudio\r\nID : 1\r\nFormat : MPEG Audio\r\nFormat version : Version 1\r\nFormat profile : Layer 3\r\nMode : Joint stereo\r\nMode extension : MS Stereo\r\nCodec ID : 55\r\nCodec ID/Hint : MP3\r\nDuration : 1 h 15 min\r\nBit rate mode : Constant\r\nBit rate : 192 kb/s\r\nChannel(s) : 2 channels\r\nSampling rate : 48.0 kHz\r\nCompression mode : Lossy\r\nDelay relative to video : 1 s 584 ms\r\nStream size : 104 MiB (7%)\r\nAlignment : Split accross interleaves\r\nInterleave, duration : 33 ms (1.00 video frame)\r\nInterleave, preload duratio : 504 ms","torrent":{"xt":"urn:btih:d259320e3c90f9412211a77d770fd2b293dc6aab","amp;dn":"Lights+Out+2016+CAM+READNFO+XviD-BiGDADDYVAiN","amp;tr":["udp%3A%2F%2Ftracker.leechers-paradise.org%3A6969","udp%3A%2F%2Fzer0day.ch%3A1337","udp%3A%2F%2Fopen.demonii.com%3A1337","udp%3A%2F%2Ftracker.coppersurfer.tk%3A6969","udp%3A%2F%2Fexodus.desync.com%3A6969"],"infoHash":"d259320e3c90f9412211a77d770fd2b293dc6aab","infoHashBuffer":{"type":"Buffer","data":[210,89,50,14,60,144,249,65,34,17,167,125,119,15,210,178,147,220,106,171]},"announce":[],"urlList":[]}}